PathFileType	4	(X/Y/Z)	max-elbow-flex-wide_P0_1-783_filt_butterworth_LSTM.trc
DataRate	CameraRate	NumFrames	NumMarkers	Units	OrigDataRate	OrigDataStartFrame	OrigNumFrames
60	60	55	3	m	60	392	782
Frame#	Time	r_acromion			r_humerus_epicondyle			r_radius_styloid		
X1	Y1	Z1	X2	Y2	Z2	X3	Y3	Z3
392	6.5333	-0.005699999999999983	0.8260999999999998	0.1937000000000001	0.26480000000000004	0.7524	0.23280000000000023	0.46230000000000004	0.8069999999999999	0.31710000000000005
393	6.55	-0.005199999999999982	0.8260999999999998	0.19400000000000006	0.2639	0.7505999999999999	0.23370000000000013	0.45940000000000003	0.8111999999999999	0.31520000000000026
394	6.5667	-0.0050000000000000044	0.8263	0.19420000000000026	0.26280000000000003	0.7484	0.2351000000000002	0.45620000000000005	0.8157999999999999	0.3125000000000001
395	6.5833	-0.005199999999999982	0.8265	0.19440000000000024	0.26160000000000005	0.7461	0.23670000000000024	0.45289999999999997	0.8207	0.3096000000000002
396	6.6	-0.005699999999999983	0.8266	0.19440000000000024	0.26060000000000005	0.7436	0.23820000000000008	0.4495	0.8253999999999999	0.30690000000000006
397	6.6167	-0.006299999999999972	0.8268	0.19420000000000026	0.25980000000000003	0.7412999999999998	0.23970000000000014	0.44620000000000004	0.8298999999999999	0.3045000000000001
398	6.6333	-0.006799999999999973	0.8268	0.1937000000000001	0.2591	0.7390999999999999	0.24090000000000023	0.44279999999999997	0.8344	0.30220000000000014
399	6.65	-0.006799999999999973	0.8266	0.19310000000000016	0.25850000000000006	0.7368999999999999	0.24220000000000008	0.43910000000000005	0.8393999999999999	0.2996000000000002
400	6.6667	-0.006399999999999961	0.8262	0.19260000000000022	0.2579	0.7346999999999999	0.24370000000000014	0.43500000000000005	0.8451	0.2965000000000001
401	6.6833	-0.005699999999999983	0.8255999999999999	0.19220000000000026	0.25739999999999996	0.7325999999999999	0.2451000000000002	0.43069999999999997	0.8507	0.2936000000000002
402	6.7	-0.004699999999999982	0.8249	0.19210000000000005	0.257	0.7308999999999999	0.24640000000000006	0.4266	0.8556999999999999	0.2913000000000002
403	6.7167	-0.003599999999999992	0.8243	0.19210000000000005	0.25660000000000005	0.7295	0.2473000000000002	0.42269999999999996	0.8597999999999999	0.28980000000000017
404	6.7333	-0.002799999999999969	0.8237999999999999	0.19220000000000026	0.2564000000000001	0.7283	0.2480000000000001	0.41890000000000005	0.8632	0.28880000000000006
405	6.75	-0.0022999999999999687	0.8234999999999999	0.19230000000000025	0.2562	0.7271999999999998	0.24840000000000007	0.4152	0.8662999999999998	0.28780000000000017
406	6.7667	-0.0018999999999999573	0.8232999999999999	0.19250000000000023	0.256	0.7261	0.24850000000000005	0.4114	0.8691	0.28610000000000013
407	6.7833	-0.0016999999999999793	0.8231999999999999	0.1928000000000002	0.2559	0.7247999999999999	0.2482000000000001	0.4073	0.8716999999999999	0.2835000000000002
408	6.8	-0.0016999999999999793	0.8233999999999999	0.19310000000000016	0.25570000000000004	0.7232999999999998	0.24750000000000016	0.4031	0.8741999999999999	0.28000000000000014
409	6.8167	-0.0020000000000000018	0.8236999999999999	0.19310000000000016	0.25560000000000005	0.7218	0.24660000000000004	0.3991	0.8768	0.2761000000000001
410	6.8333	-0.0020999999999999908	0.8240999999999998	0.1927000000000002	0.25540000000000007	0.7202999999999999	0.2460000000000001	0.395	0.8795999999999999	0.2723000000000001
411	6.85	-0.0017999999999999683	0.8244	0.19220000000000026	0.2551	0.7189999999999999	0.24570000000000014	0.39070000000000005	0.8827	0.26880000000000026
412	6.8667	-0.0008999999999999564	0.8245	0.19180000000000008	0.25460000000000005	0.7177	0.24580000000000013	0.38580000000000003	0.8861999999999999	0.2655000000000002
413	6.8833	0.00030000000000002247	0.8245	0.19150000000000011	0.2541	0.7164999999999999	0.24620000000000009	0.38	0.8900999999999999	0.2623000000000001
414	6.9	0.0015999999999999903	0.8242	0.19130000000000014	0.25350000000000006	0.7153	0.24680000000000024	0.3738	0.8939999999999999	0.2593000000000002
415	6.9167	0.0030000000000000027	0.8238999999999999	0.19100000000000017	0.253	0.7142	0.24750000000000016	0.36740000000000006	0.8977999999999999	0.25680000000000025
416	6.9333	0.004200000000000037	0.8236999999999999	0.1908000000000002	0.25260000000000005	0.7130999999999998	0.2480000000000001	0.361	0.901	0.25470000000000026
417	6.95	0.005099999999999993	0.8234999999999999	0.1906000000000002	0.25240000000000007	0.712	0.24850000000000005	0.35440000000000005	0.9037	0.25250000000000006
418	6.9667	0.005700000000000038	0.8233999999999999	0.19040000000000024	0.25229999999999997	0.7108999999999999	0.24900000000000022	0.3477	0.9057999999999999	0.24990000000000012
419	6.9833	0.006099999999999994	0.8233999999999999	0.19040000000000024	0.2522	0.7097	0.24950000000000017	0.34130000000000005	0.9075	0.24640000000000006
420	7.0	0.006300000000000028	0.8233999999999999	0.1906000000000002	0.2521	0.7085999999999999	0.24990000000000012	0.33620000000000005	0.909	0.24220000000000008
421	7.0167	0.006500000000000006	0.8233999999999999	0.1907000000000002	0.252	0.7078	0.2501000000000001	0.33210000000000006	0.9104999999999999	0.2379000000000001
422	7.0333	0.006700000000000039	0.8234999999999999	0.1907000000000002	0.25170000000000003	0.7070999999999998	0.2503000000000001	0.3285	0.9118999999999999	0.23380000000000012
423	7.05	0.007000000000000006	0.8235999999999999	0.19040000000000024	0.25129999999999997	0.7066999999999999	0.25060000000000004	0.3244	0.9135	0.2300000000000001
424	7.0667	0.007500000000000007	0.8237999999999999	0.19000000000000006	0.2509	0.7063999999999999	0.2510000000000002	0.3198	0.9152	0.22640000000000005
425	7.0833	0.008000000000000007	0.8239999999999998	0.18940000000000012	0.25050000000000006	0.7062999999999999	0.25150000000000017	0.31500000000000006	0.917	0.22320000000000018
426	7.1	0.00820000000000004	0.8240999999999998	0.18890000000000018	0.25029999999999997	0.7062999999999999	0.2519000000000001	0.3105	0.9183999999999999	0.22060000000000024
427	7.1167	0.008099999999999996	0.8243	0.1886000000000002	0.2501	0.7062999999999999	0.2521000000000001	0.3065	0.9195	0.21870000000000023
428	7.1333	0.007599999999999996	0.8245	0.18840000000000023	0.25	0.7061	0.2522000000000001	0.30280000000000007	0.9201999999999999	0.2170000000000002
429	7.15	0.006599999999999995	0.8248	0.18810000000000004	0.24980000000000002	0.7058	0.2521000000000001	0.29880000000000007	0.9205999999999999	0.21540000000000015
430	7.1667	0.005599999999999994	0.8251	0.18780000000000008	0.24960000000000004	0.7054	0.2520000000000001	0.2942	0.9211	0.2137000000000001
431	7.1833	0.0047000000000000375	0.8253999999999999	0.18740000000000012	0.24940000000000007	0.7049999999999998	0.2519000000000001	0.28900000000000003	0.9216	0.21220000000000006
432	7.2	0.0040000000000000036	0.8256999999999999	0.18700000000000017	0.24929999999999997	0.7045999999999999	0.25170000000000015	0.2835	0.9223999999999999	0.21070000000000022
433	7.2167	0.0038000000000000256	0.8259999999999998	0.18650000000000022	0.24919999999999998	0.7044999999999999	0.25160000000000016	0.2783	0.9231	0.20930000000000015
434	7.2333	0.0040999999999999925	0.8262	0.18610000000000004	0.24919999999999998	0.7043999999999999	0.2514000000000002	0.27390000000000003	0.9237	0.20790000000000008
435	7.25	0.0049000000000000155	0.8262	0.1855000000000001	0.2491	0.7043999999999999	0.2512000000000002	0.26990000000000003	0.9239999999999999	0.20620000000000005
436	7.2667	0.005800000000000027	0.8262	0.1847000000000002	0.2491	0.7043999999999999	0.2512000000000002	0.2661	0.9238999999999999	0.20440000000000025
437	7.2833	0.006700000000000039	0.8262	0.18370000000000009	0.249	0.7042999999999999	0.2512000000000002	0.262	0.9236	0.20260000000000022
438	7.3	0.007400000000000018	0.8260999999999998	0.18250000000000022	0.24870000000000003	0.704	0.2514000000000002	0.25780000000000003	0.9231	0.2008000000000002
439	7.3167	0.008000000000000007	0.8260999999999998	0.18140000000000012	0.24840000000000007	0.7037	0.25160000000000016	0.25350000000000006	0.9224999999999999	0.19940000000000013
440	7.3333	0.008400000000000019	0.8259999999999998	0.18050000000000022	0.248	0.7032	0.2519000000000001	0.24919999999999998	0.9217	0.19840000000000024
441	7.35	0.008700000000000041	0.8258999999999999	0.17970000000000008	0.24770000000000003	0.7026999999999999	0.2521000000000001	0.24470000000000003	0.9207999999999998	0.1978000000000001
442	7.3667	0.008900000000000019	0.8257999999999999	0.17900000000000016	0.24750000000000005	0.702	0.2522000000000001	0.24030000000000007	0.9198	0.19720000000000015
443	7.3833	0.009099999999999997	0.8257999999999999	0.17820000000000025	0.24740000000000006	0.7013	0.2522000000000001	0.23619999999999997	0.9186999999999999	0.19630000000000025
444	7.4	0.00930000000000003	0.8257999999999999	0.17730000000000012	0.24740000000000006	0.7003999999999999	0.2522000000000001	0.23299999999999998	0.9175	0.19530000000000014
445	7.4167	0.00940000000000002	0.8259999999999998	0.1765000000000002	0.24740000000000006	0.6997	0.2521000000000001	0.23050000000000004	0.9161999999999999	0.19390000000000007
446	7.4333	0.009500000000000008	0.8260999999999998	0.17570000000000008	0.24750000000000005	0.6990999999999998	0.2521000000000001	0.22840000000000005	0.915	0.19230000000000025
